<?xml version="1.0" encoding="UTF-8"?>
<!DOCTYPE svg PUBLIC "-//W3C//DTD SVG 1.1//EN" "http://www.w3.org/Graphics/SVG/1.1/DTD/svg11.dtd">
<!-- Creator: CorelDRAW 2020 (64 Bit) -->
<svg xmlns="http://www.w3.org/2000/svg" xml:space="preserve" width="200mm" height="50mm" version="1.1" style="shape-rendering:geometricPrecision; text-rendering:geometricPrecision; image-rendering:optimizeQuality; fill-rule:evenodd; clip-rule:evenodd"
viewBox="0 0 20000 5000"
 xmlns:xlink="http://www.w3.org/1999/xlink"
 xmlns:xodm="http://www.corel.com/coreldraw/odm/2003"
 xmlns:dc="http://purl.org/dc/elements/1.1/"
 xmlns:cc="http://creativecommons.org/ns#"
 xmlns:rdf="http://www.w3.org/1999/02/22-rdf-syntax-ns#"
 xmlns:svg="http://www.w3.org/2000/svg"
 xmlns:sodipodi="http://sodipodi.sourceforge.net/DTD/sodipodi-0.dtd"
 xmlns:inkscape="http://www.inkscape.org/namespaces/inkscape"
 inkscape:version="1.0 (4035a4fb49, 2020-05-01)"
 sodipodi:docname="ultrasecreto.svg">
 <defs>
  <style type="text/css">
   <![CDATA[
    .fil1 {fill:#B27D35}
    .fil0 {fill:red;fill-rule:nonzero}
   ]]>
  </style>
 </defs>
 <g id="Camada_x0020_1">
  <metadata id="CorelCorpID_0Corel-Layer"/>
  <sodipodi:namedview inkscape:current-layer="svg3" inkscape:window-maximized="1" inkscape:window-y="-8" inkscape:window-x="-8" inkscape:cy="-25.076779" inkscape:cx="195.52613" inkscape:zoom="1.1160822" showgrid="false" id="namedview5" inkscape:window-height="705" inkscape:window-width="1366" inkscape:pageshadow="2" inkscape:pageopacity="0" guidetolerance="10" gridtolerance="10" objecttolerance="10" borderopacity="1" bordercolor="#666666" pagecolor="#ffffff"/>
  <sodipodi:namedview inkscape:current-layer="svg3" inkscape:window-maximized="1" inkscape:window-y="-8" inkscape:window-x="-8" inkscape:cy="-25.076779" inkscape:cx="195.52613" inkscape:zoom="1.1160822" showgrid="false" id="namedview5" inkscape:window-height="705" inkscape:window-width="1366" inkscape:pageshadow="2" inkscape:pageopacity="0" guidetolerance="10" gridtolerance="10" objecttolerance="10" borderopacity="1" bordercolor="#666666" pagecolor="#ffffff"/>
  <path class="fil0" d="M5685.12 3351.29l-292.88 -1031.44 -8.69 0c2.67,26.74 5.35,63.19 8.35,108.66 2.68,45.8 5.69,94.95 8.36,148.11 2.34,52.83 3.68,103.65 3.68,152.79l0 621.88 -342.7 0 0 -1431.99 515.22 0 298.57 1016.74 8.02 0 292.89 -1016.74 516.22 0 0 1431.99 -355.74 0 0 -627.89c0,-45.14 1,-93.62 2.67,-145.44 1.68,-51.83 3.35,-100.97 5.69,-146.78 2.34,-46.14 4.34,-82.58 6.35,-109.33l-8.69 0 -288.87 1029.44 -368.45 0z"/>
  <path id="1" class="fil0" d="M8340.8 2633.46c0,110.33 -13.37,210.63 -39.79,300.91 -26.41,90.6 -67.87,168.5 -124.04,233.7 -56.17,65.2 -128.05,115.35 -216.31,150.45 -88.27,34.78 -193.59,52.5 -316.29,52.5 -120.37,0 -224.35,-17.72 -311.94,-52.5 -87.93,-35.1 -160.15,-84.92 -216.99,-149.78 -56.84,-65.2 -98.97,-143.1 -126.38,-233.71 -27.42,-90.94 -41.13,-191.91 -41.13,-303.58 0,-149.11 24.41,-278.5 73.89,-388.5 49.15,-110 125.38,-195.26 228.69,-255.77 103.31,-60.19 235.05,-90.61 395.86,-90.61 163.16,0 295.9,30.42 397.87,91.27 102.31,60.85 177.2,146.11 225.01,256.44 47.48,110.67 71.55,240.06 71.55,389.18zm-985.64 0c0,85.92 10.03,160.15 29.42,222.34 19.73,61.85 50.82,109.66 93.29,142.76 42.46,33.43 97.96,50.15 166.5,50.15 71.21,0 127.72,-16.72 169.84,-50.15 42.13,-33.1 72.56,-80.91 90.94,-142.76 18.73,-62.19 28.09,-136.42 28.09,-222.34 0,-129.39 -21.73,-231.7 -64.53,-306.59 -43.13,-75.23 -117.35,-112.68 -222.34,-112.68 -69.87,0 -126.38,16.72 -169.17,50.82 -42.8,34.11 -73.89,82.25 -92.95,145.11 -19.39,62.52 -29.09,137.08 -29.09,223.34z"/>
  <path id="2" class="fil0" d="M9962.7 3351.29l-507.54 0 -522.91 -1009.04 -8.69 0c3.01,30.76 6.02,67.87 8.69,110.66 2.68,43.13 5.02,87.27 6.69,132.07 2.01,44.47 3.01,84.92 3.01,120.7l0 645.61 -342.7 0 0 -1431.99 505.52 0 520.91 995.01 6.02 0c-2.01,-31.1 -4.01,-67.54 -6.02,-109 -2.01,-41.46 -3.68,-83.59 -5.35,-126.05 -1.67,-42.46 -2.34,-79.9 -2.34,-112.67l0 -647.29 344.71 0 0 1431.99z"/>
  <polygon id="3" class="fil0" points="10904.21,3351.29 10517.04,3351.29 10517.04,2235.59 10167.32,2235.59 10167.32,1919.3 11252.92,1919.3 11252.92,2235.59 10904.21,2235.59 "/>
  <polygon id="4" class="fil0" points="12089.45,3351.29 11702.28,3351.29 11702.28,2235.59 11352.56,2235.59 11352.56,1919.3 12438.16,1919.3 12438.16,2235.59 12089.45,2235.59 "/>
  <polygon id="5" class="fil0" points="13493.01,3351.29 12642.78,3351.29 12642.78,1919.3 13493.01,1919.3 13493.01,2229.91 13029.61,2229.91 13029.61,2454.92 13458.57,2454.92 13458.57,2765.52 13029.61,2765.52 13029.61,3036.01 13493.01,3036.01 "/>
  <polygon id="6" class="fil0" points="14764.52,3351.29 13648.82,3351.29 13648.82,3112.24 14268.69,2231.58 13663.53,2231.58 13663.53,1919.3 14748.8,1919.3 14748.8,2157.36 14128.6,3038.68 14764.52,3038.68 "/>
  <path id="7" class="fil0" d="M16186.47 1919.3l0 861.94c0,120.03 -22.74,224.34 -68.54,312.94 -45.47,88.6 -114.01,156.81 -205.62,204.62 -91.28,48.14 -205.96,72.22 -343.71,72.22 -197.26,0 -347.71,-50.82 -451.69,-152.13 -103.65,-100.97 -155.8,-244.07 -155.8,-428.96l0 -870.63 389.17 0 0 840.21c0,101.3 18.72,174.86 56.5,220.66 38.12,45.47 93.95,68.54 167.51,68.54 53.16,0 96.29,-10.03 129.39,-30.09 33.43,-19.73 57.84,-51.15 72.89,-94.28 15.38,-43.13 23.06,-98.64 23.06,-166.51l0 -838.53 386.84 0z"/>
  <path id="8" class="fil0" d="M17111.26 3351.29l-292.88 -1031.44 -8.69 0c2.67,26.74 5.35,63.19 8.35,108.66 2.68,45.8 5.69,94.95 8.36,148.11 2.34,52.83 3.68,103.65 3.68,152.79l0 621.88 -342.7 0 0 -1431.99 515.22 0 298.57 1016.74 8.02 0 292.89 -1016.74 516.22 0 0 1431.99 -355.74 0 0 -627.89c0,-45.14 1,-93.62 2.67,-145.44 1.68,-51.83 3.35,-100.97 5.69,-146.78 2.34,-46.14 4.34,-82.58 6.35,-109.33l-8.69 0 -288.87 1029.44 -368.45 0z"/>
  <path id="9" class="fil0" d="M19305.55 3351.29l-70.55 -268.48 -465.4 0 -72.55 268.48 -424.95 0 467.08 -1438 516.22 0 473.09 1438 -422.94 0zm-150.79 -585.77l-61.85 -235.04c-6.35,-25.41 -16.05,-61.85 -28.42,-109.33 -12.37,-47.14 -24.74,-96.29 -36.78,-146.77 -12.03,-50.82 -21.4,-92.28 -27.75,-125.05 -6.02,32.77 -14.37,73.22 -25.07,121.03 -10.7,48.15 -21.74,95.63 -33.44,142.43 -11.37,47.15 -21.4,86.26 -29.75,117.69l-61.52 235.04 304.58 0z"/>
  <g id="_2600464617296">
   <path class="fil1" d="M3072.16 2280.09l30.83 95.16c2.69,7.68 0.68,0.91 3.89,9.4l81.54 317.35c1.69,10.73 1.82,18.36 3.87,29.37l26.24 163.23c0.9,14.67 3.4,43.92 6.2,56.96 5.63,26.27 6.07,100 8.76,117.56 9.59,62.63 7.68,257.2 0.9,310.34 -4.43,34.7 -2.04,83.17 -10.08,116.23 -4.97,20.41 -2.91,47.56 -11.1,85.3l-7.2 55.96c-7.47,26.21 -5.23,36.45 -10.02,53.13l-87.74 331.56c-2.99,21.91 -10.86,41.36 -18.46,61.13l-2.95 7.17c-2.27,7.3 -2.09,1.86 -2.56,12.65l72.19 -126.71c3.92,-8.78 -1.2,2.98 2.64,-7.46 4.04,-10.96 0.18,-2.52 4.89,-11.51 10.09,-19.31 21.01,-42.59 33.6,-59.25l42.77 -83.78c0.33,-0.67 0.79,-1.5 1.14,-2.17l2.32 -4.32c0.35,-0.67 0.82,-1.5 1.17,-2.18 1.26,-2.5 1.85,-4.15 3.17,-6.86 1.89,-3.88 1.82,-3.83 3.35,-6.5l55.16 -104.26c0.41,-0.59 0.98,-1.38 1.38,-1.98l122.02 -230.6c0.31,-0.67 0.65,-1.58 0.99,-2.23l15.49 -24.32c2.04,-3.6 1.53,-2.67 3.45,-6.64 1.23,-2.54 4.23,-9.1 5.27,-11.31l33.31 -62.81c0.42,-0.56 1.05,-1.32 1.47,-1.89l44 -85.77c0.36,-0.63 0.9,-1.42 1.26,-2.05l11.6 -21.53c0.4,-0.56 1.04,-1.31 1.44,-1.87l33.13 -60.1c0.5,-0.87 1.94,-3.33 2.42,-4.22l28.73 -51.13c3.3,-6.77 0.39,-0.57 3.44,-6.49 1.43,-2.79 1.84,-3.54 3.37,-6.71 0.44,-0.91 1.58,-3.66 2.03,-4.57l11.06 -22.14c3.18,-6.34 0.62,-0.98 3.47,-6.48l9.97 -19.95c0.34,-0.67 0.82,-1.5 1.17,-2.18 0.34,-0.69 0.78,-1.55 1.12,-2.24l38.74 -74.24c1.86,-3.7 1.14,-2.92 3.18,-6.83l14.41 -28.81c5.78,-11.95 13.26,-17.05 18.93,-27.49 0.37,-0.66 0.84,-1.5 1.19,-2.16 0.35,-0.68 0.83,-1.49 1.17,-2.19l10.06 -23.07c0.85,-1.46 2.9,-4.6 3.83,-6.18 7.69,-13.01 -2.43,4.28 2.42,-4.23l63.16 -123.04c0.34,-0.67 0.8,-1.5 1.15,-2.17 0.34,-0.66 0.81,-1.49 1.16,-2.16 0.35,-0.66 0.82,-1.48 1.17,-2.15l2.31 -4.4c18.62,-37.91 22.57,-36.19 27.57,-45.5 0.38,-0.71 0.76,-1.59 1.1,-2.33 1.44,-3.13 1.38,-4.22 2.61,-7.5l12.79 -23.47c0.37,-0.64 0.87,-1.47 1.22,-2.12 0.36,-0.65 0.85,-1.48 1.2,-2.14l15.08 -31.43c0.37,-0.63 0.84,-1.48 1.21,-2.13l4.76 -8.58c0.36,-0.67 0.81,-1.51 1.15,-2.19l18.58 -31.13c2.89,-4.47 1.01,-1.36 3.61,-6.57l22.98 -46.75c3.18,-6.35 0.63,-1 3.47,-6.48 1.51,-2.91 1.79,-3.4 3.37,-6.7l45.41 -84.19c0.34,-0.67 0.75,-1.53 1.09,-2.2l11.15 -18.73c8.43,-15.6 12.02,-26.89 22.37,-40.59 0.64,-0.84 6.11,-9.64 6.49,-10.35l12.14 -24.47c1.73,-3.51 3.34,-7.37 5.33,-11.23 0.34,-0.67 0.82,-1.5 1.16,-2.16 0.35,-0.66 0.83,-1.49 1.17,-2.16l6.5 -13.47c0.33,-0.66 0.8,-1.5 1.14,-2.15l39.24 -70.27c6.11,-9.18 8.79,-25.56 16.94,-36.22 0.42,-0.54 1.06,-1.27 1.48,-1.81 8.06,-10.4 8.11,-22.78 14.32,-32.32 7.52,-11.54 10.89,-11.63 16.7,-23.37 0.33,-0.67 0.77,-1.52 1.1,-2.19 0.34,-0.67 0.8,-1.51 1.14,-2.17l40.22 -79.26c0.03,-0.05 2.93,-3.53 4.41,-5.56 13.98,-19.11 17.69,-42.81 30.89,-62.23 3.43,-5.05 3.3,-4.25 4.28,-5.62l54.29 -102.15c2.7,-5.21 3.46,-7.27 5.41,-11.27l32.16 -57.54c0.34,-0.66 0.81,-1.5 1.14,-2.16l17.64 -35.57c8.53,-17.03 15.72,-37.15 27.97,-51.45 7.05,-8.22 7.95,-19.04 13.98,-29.51l11.35 -15.16c7.13,-11.38 0.96,-10.97 19.81,-40.04l19.95 -33.24c2.89,-4.47 1,-1.36 3.6,-6.57l70.72 -135.41c0.34,-0.76 0.6,-1.69 0.92,-2.47l2.62 -7.3c0.3,-0.72 0.68,-1.58 0.99,-2.29l6.4 -13.45c2.98,-5.38 1.39,-2.54 3.83,-5.94l15.14 -28.29c0.46,-0.86 2.02,-3.07 2.57,-3.86 0.4,-0.55 1.07,-1.26 1.48,-1.81 0.41,-0.55 1.1,-1.25 1.51,-1.8 0.42,-0.57 1.09,-1.29 1.5,-1.87 4.13,-5.79 0.84,-1.01 3.9,-6.24l32.19 -64.23c0.34,-0.66 0.82,-1.5 1.17,-2.16 0.34,-0.66 0.82,-1.49 1.17,-2.16l25.4 -44.46c0.33,-0.69 0.74,-1.55 1.06,-2.22l3.45 -6.51c0.35,-0.66 0.83,-1.49 1.17,-2.16l30.13 -59.5c3.97,-5.68 1.56,-2.25 4.24,-5.48l-12.37 -19.94c-7.18,-8.73 -1.94,4.5 -7.86,-11.15 -5.7,-11.37 -0.04,-1.66 -8.01,-9.51 -3.36,-3.31 -6.53,-6.14 -10.33,-9.6l-68.64 -60.98c-44.88,-38.08 -148.78,-121.59 -193.7,-151.98l-222.76 -146.16 -140.34 -79.04c-5.93,-3.28 -5.55,-2.73 -11.17,-5.45 -13.31,-6.45 -26.08,-16.62 -40.54,-18.63 -16.45,2.7 -10.57,-6.56 -16.96,-0.01 -6.43,6.61 -4.29,12.72 -9.72,19.19 -11.63,13.89 -17.04,31.2 -26.2,46.92 -0.37,0.63 -0.91,1.42 -1.27,2.06l-10.05 19.85c-1.32,2.57 -1.73,3.45 -3.28,6.68 -0.73,1.54 -2.44,5.37 -3.2,6.79l-3.75 6.23c-3.58,5.84 -3.82,6.08 -7.39,12.54l-44.29 82.04c-0.36,0.63 -0.86,1.44 -1.2,2.1 -0.35,0.68 -0.72,1.57 -1.04,2.27 -4.79,10.48 -6.12,19.74 -13.71,29.55l-47.38 88.87c-1.86,3.82 -2.67,6.53 -5.25,11.38l-44.61 81.69c-0.2,0.43 -2.83,6.33 -3.1,6.87l-6.83 13.11c-7.16,15.03 -16.59,22.33 -21.41,38.39l-11.77 21.54c-9.69,12.68 -15.63,28.86 -23.32,43.13 -0.36,0.66 -0.81,1.5 -1.15,2.17l-6.35 13.59c-2.46,4.92 -0.63,1.77 -3.51,6.47l-41.09 75.24c-2.82,5.6 -3.56,7.97 -6.43,13.52 -0.47,0.9 -1.85,3.44 -2.33,4.32l-34.3 62.09c-0.33,0.72 -0.6,1.66 -0.91,2.4l-76.78 145.93c-0.15,0.28 -2.93,6.66 -3.06,6.92l-21.14 35.37c-0.34,0.67 -0.81,1.51 -1.14,2.18l-11.12 22.12c-0.35,0.67 -0.83,1.49 -1.17,2.16l-22.98 43.46c-5.64,19.08 -20.57,32.43 -27.75,48.73 -4.22,9.56 -1.39,4.72 -6.45,13.52 -0.36,0.63 -0.92,1.4 -1.29,2.03l-40.24 72.77c-1.68,2.88 -0.89,0.82 -3.4,6.55l-7.3 19.3c-0.34,0.68 -0.84,1.48 -1.19,2.14l-23.49 46.3c-0.35,0.69 -0.78,1.53 -1.12,2.22l-16.89 29.67c-0.41,0.56 -1.08,1.27 -1.48,1.84 -3.72,5.39 -0.84,0.17 -3.67,6.26 -1.4,3.04 -1.23,3.81 -2.62,7.35 -5.92,15.03 -15.23,24.26 -21.87,37.99l-70.84 135.23c-0.35,0.67 -0.82,1.5 -1.15,2.18 -1.4,2.8 -1.76,4.01 -3.13,6.83l-31.2 55.25c-0.41,0.57 -1.07,1.29 -1.46,1.87l-18.36 38.15c-3.08,4.11 -1.82,2.05 -4.32,5.65 -16.59,23.79 -2.15,5.42 -16.41,30.37l-2.74 4.13c-2.28,3.81 -4.67,7.2 -3.01,13.24 2.46,8.99 7.84,18.59 3.07,26.58z"/>
   <path class="fil1" d="M3108.25 4021.64c-7.99,6.47 -32.66,80.7 -38.2,94.3 -4.42,10.91 -5.46,12.05 -9.98,23.26 -4.4,10.93 -5.44,12.04 -9.97,23.27l-21.65 48.15c-11.74,28.19 -35.78,68.55 -40.02,92.94 -5.38,30.93 -2.33,55.16 12.05,82.31 19.11,36.07 52.48,60.81 87.62,81.89 7.52,4.51 13.21,7.55 21.73,11.5 8.33,3.87 16.54,7.74 22.82,10.42 5.06,2.15 6.88,2.51 11.94,4.68 36.44,15.67 36.02,13.02 63.33,23.09 9.35,3.44 16.82,3.76 26.75,6.48l55.68 14.12c28,7.15 95.65,15.34 120.81,15.52 42.42,0.18 74.98,3.12 115.56,2.37l18.63 -40.97c3.04,-4.42 0.48,-0.18 4.29,-5.67 12.67,-18.25 18.07,-40.94 31.82,-57.96 0.44,-0.54 1.11,-1.25 1.55,-1.78l4.49 -5.42c0.39,-0.57 0.96,-1.35 1.32,-1.95l3.04 -6.73c0.31,-0.77 0.51,-1.71 0.81,-2.49 5.58,-14.65 -0.33,-3.41 6.94,-13.34 15.34,-20.95 -6.64,12.84 4.33,-5.52l37.22 -75.74c0.33,-0.69 0.77,-1.55 1.11,-2.23l8.85 -17.74c0.36,-0.67 0.8,-1.54 1.19,-2.19 0.37,-0.64 0.89,-1.46 1.28,-2.08l28.28 -51.42c0.34,-0.67 0.82,-1.49 1.16,-2.16l29.24 -57.41c0.48,-0.49 1.21,-1.16 1.68,-1.66l9.25 -10.52c2.28,-3.67 0.49,0.67 3.25,-6.53 9.93,-25.83 8.58,-18.34 17.77,-35.52l30.45 -62.7c0.37,-0.62 0.9,-1.42 1.28,-2.04l38.07 -68.24c3.98,-7.38 3.26,-9.6 5.94,-17.17 3.37,-9.51 0.87,-5.36 7.48,-12.83 1.14,-1.28 9.29,-10.05 9.44,-10.31 11.77,-21.21 -3.04,-4.81 23.15,-43.41l78.28 -154.31c11.81,-23.01 26.97,-44.8 37.33,-68.97l45.25 -81.05c1.55,-3.32 1.92,-3.97 3.33,-6.72l28.68 -57.74c0.35,-0.67 0.82,-1.52 1.19,-2.16l59.08 -110.28c5.36,-14.77 12.87,-18.77 20.78,-32.55l22.19 -44.26c0.35,-0.67 0.81,-1.5 1.15,-2.17 1.94,-3.9 2.57,-5.76 4.2,-9.08l17.93 -32c0.38,-0.62 0.83,-1.48 1.2,-2.1l46.02 -93.61c0.35,-0.64 0.84,-1.46 1.19,-2.11 0.35,-0.65 0.78,-1.51 1.13,-2.17l3.28 -6.72c6.88,-11.27 15.83,-12.73 18.79,-27.41 2.66,-13.13 4.72,-15.09 13.01,-24.09l93.53 -178.84c0.36,-0.61 0.83,-1.47 1.17,-2.11l27.9 -55.13c0.31,-0.76 0.68,-1.62 1,-2.37 0.32,-0.72 0.74,-1.57 1.07,-2.26l4.82 -8.57c0.39,-0.61 0.95,-1.41 1.35,-2l27.15 -45.83c0.74,-1.58 2.39,-5.3 3.17,-6.85l21.11 -42.07c0.34,-0.67 0.82,-1.49 1.16,-2.16l9.96 -19.95c0.34,-0.67 0.81,-1.5 1.14,-2.17l11.15 -19.07c4.35,-3.96 2.28,-0.99 7.42,-4.93 -2.72,-11.54 -3.48,-14.1 -8.03,-24.55 -4.22,-9.69 -7.38,-17.55 -8.5,-28.64 0.26,-16.81 -24.06,-57.35 -32.13,-76.78l-25.43 -51.45c-3.46,-11.48 -0.91,-14.41 3.17,-23.24 15.57,-33.67 43.07,-68.03 65.69,-97.3l65.92 -80.33c6.22,-8.06 11.02,-11.69 17.15,-19.41 3.28,-4.14 4.82,-7.15 8.26,-11.69 3.91,-5.16 2.34,-2.94 4.46,-5.5l162.69 -219.56c5.15,-8.14 8.62,-14.06 14.21,-22.36 34.13,-50.78 66.1,-118.07 91.84,-174.08 13.63,-29.66 29.55,-78.96 38.26,-111.31l25.43 -124.15c1.14,-27.08 4.27,-46.18 3.4,-73.28l-7.16 -69.3c-5.65,-20.49 -4.21,-53.3 -22.15,-90.87l-12.43 -24.13c-16.95,-28.16 -58.8,-89.6 -78.85,-110.62l-31.19 -35.28c-0.45,-0.52 -1.08,-1.28 -1.52,-1.8l-21.45 -25.1c-0.44,-0.52 -1.06,-1.29 -1.51,-1.81l-14.08 -15.83c-16.87,-17.1 -84.75,-89.79 -98.04,-93.87 5.92,15.65 0.68,2.42 7.86,11.15l12.37 19.94c-2.68,3.23 -0.27,-0.2 -4.24,5.48l-30.13 59.5c-0.34,0.67 -0.82,1.5 -1.17,2.16l-3.45 6.51c-0.32,0.67 -0.73,1.53 -1.06,2.22l-25.4 44.46c-0.35,0.67 -0.83,1.5 -1.17,2.16 -0.35,0.66 -0.83,1.5 -1.17,2.16l-32.19 64.23c-3.06,5.23 0.23,0.45 -3.9,6.24 -0.41,0.58 -1.08,1.3 -1.5,1.87 -0.41,0.55 -1.1,1.25 -1.51,1.8 -0.41,0.55 -1.08,1.26 -1.48,1.81 -0.55,0.79 -2.11,3 -2.57,3.86l-15.14 28.29c-2.44,3.4 -0.85,0.56 -3.83,5.94l-6.4 13.45c-0.31,0.71 -0.69,1.57 -0.99,2.29l-2.62 7.3c-0.32,0.78 -0.58,1.71 -0.92,2.47l-70.72 135.41c-2.6,5.21 -0.71,2.1 -3.6,6.57l-19.95 33.24c-18.85,29.07 -12.68,28.66 -19.81,40.04l-11.35 15.16c-6.03,10.47 -6.93,21.29 -13.98,29.51 -12.25,14.3 -19.44,34.42 -27.97,51.45l-17.64 35.57c-0.33,0.66 -0.8,1.5 -1.14,2.16l-32.16 57.54c-1.95,4 -2.71,6.06 -5.41,11.27l-54.29 102.15c-0.98,1.37 -0.85,0.57 -4.28,5.62 -13.2,19.42 -16.91,43.12 -30.89,62.23 -1.48,2.03 -4.38,5.51 -4.41,5.56l-40.22 79.26c-0.34,0.66 -0.8,1.5 -1.14,2.17 -0.33,0.67 -0.77,1.52 -1.1,2.19 -5.81,11.74 -9.18,11.83 -16.7,23.37 -6.21,9.54 -6.26,21.92 -14.32,32.32 -0.42,0.54 -1.06,1.27 -1.48,1.81 -8.15,10.66 -10.83,27.04 -16.94,36.22l-39.24 70.27c-0.34,0.65 -0.81,1.49 -1.14,2.15l-6.5 13.47c-0.34,0.67 -0.82,1.5 -1.17,2.16 -0.34,0.66 -0.82,1.49 -1.16,2.16 -1.99,3.86 -3.6,7.72 -5.33,11.23l-12.14 24.47c-0.38,0.71 -5.85,9.51 -6.49,10.35 -10.35,13.7 -13.94,24.99 -22.37,40.59l-11.15 18.73c-0.34,0.67 -0.75,1.53 -1.09,2.2l-45.41 84.19c-1.58,3.3 -1.86,3.79 -3.37,6.7 -2.84,5.48 -0.29,0.13 -3.47,6.48l-22.98 46.75c-2.6,5.21 -0.72,2.1 -3.61,6.57l-18.58 31.13c-0.34,0.68 -0.79,1.52 -1.15,2.19l-4.76 8.58c-0.37,0.65 -0.84,1.5 -1.21,2.13l-15.08 31.43c-0.35,0.66 -0.84,1.49 -1.2,2.14 -0.35,0.65 -0.85,1.48 -1.22,2.12l-12.79 23.47c-1.23,3.28 -1.17,4.37 -2.61,7.5 -0.34,0.74 -0.72,1.62 -1.1,2.33 -5,9.31 -8.95,7.59 -27.57,45.5l-2.31 4.4c-0.35,0.67 -0.82,1.49 -1.17,2.15 -0.35,0.67 -0.82,1.5 -1.16,2.16 -0.35,0.67 -0.81,1.5 -1.15,2.17l-63.16 123.04c-4.85,8.51 5.27,-8.78 -2.42,4.23 -0.93,1.58 -2.98,4.72 -3.83,6.18l-10.06 23.07c-0.34,0.7 -0.82,1.51 -1.17,2.19 -0.35,0.66 -0.82,1.5 -1.19,2.16 -5.67,10.44 -13.15,15.54 -18.93,27.49l-14.41 28.81c-2.04,3.91 -1.32,3.13 -3.18,6.83l-38.74 74.24c-0.34,0.69 -0.78,1.55 -1.12,2.24 -0.35,0.68 -0.83,1.51 -1.17,2.18l-9.97 19.95c-2.85,5.5 -0.29,0.14 -3.47,6.48l-11.06 22.14c-0.45,0.91 -1.59,3.66 -2.03,4.57 -1.53,3.17 -1.94,3.92 -3.37,6.71 -3.05,5.92 -0.14,-0.28 -3.44,6.49l-28.73 51.13c-0.48,0.89 -1.92,3.35 -2.42,4.22l-33.13 60.1c-0.4,0.56 -1.04,1.31 -1.44,1.87l-11.6 21.53c-0.36,0.63 -0.9,1.42 -1.26,2.05l-44 85.77c-0.42,0.57 -1.05,1.33 -1.47,1.89l-33.31 62.81c-1.04,2.21 -4.04,8.77 -5.27,11.31 -1.92,3.97 -1.41,3.04 -3.45,6.64l-15.49 24.32c-0.34,0.65 -0.68,1.56 -0.99,2.23l-122.02 230.6c-0.4,0.6 -0.97,1.39 -1.38,1.98l-55.16 104.26c-1.53,2.67 -1.46,2.62 -3.35,6.5 -1.32,2.71 -1.91,4.36 -3.17,6.86 -0.35,0.68 -0.82,1.51 -1.17,2.18l-2.32 4.32c-0.35,0.67 -0.81,1.5 -1.14,2.17l-42.77 83.78c-12.59,16.66 -23.51,39.94 -33.6,59.25 -4.71,8.99 -0.85,0.55 -4.89,11.51 -3.84,10.44 1.28,-1.32 -2.64,7.46l-72.19 126.71c0.47,-10.79 0.29,-5.35 2.56,-12.65l2.95 -7.17c7.6,-19.77 15.47,-39.22 18.46,-61.13z"/>
   <path class="fil1" d="M1982.04 488.03c4.09,12.07 17.32,1.57 29.07,0.53l-26.55 48.83c-0.35,0.7 -0.7,1.61 -1.04,2.31 -0.34,0.69 -0.67,1.61 -1.01,2.3l-9.29 13.78c-0.43,0.56 -1.01,1.35 -1.42,1.94 -0.56,0.8 -2.15,3.17 -2.66,4.02 -2.75,4.48 -0.98,1.37 -3.55,6.52l-5.23 11.37c-0.33,0.67 -0.8,1.5 -1.15,2.17l-4.62 8.71c-0.45,0.92 -1.63,3.68 -2.07,4.6l-76.83 152.47c-0.33,0.64 -0.84,1.46 -1.2,2.06 -0.33,0.56 -2.75,3.7 -4.19,5.7 -0.41,0.56 -1.02,1.33 -1.43,1.9l-2.79 3.89c-0.4,0.59 -0.93,1.42 -1.33,2.01l-10.83 19.23c-0.33,0.74 -0.7,1.61 -1.01,2.36l-5.52 14.29c-0.35,0.61 -0.89,1.42 -1.26,2l-21.02 35.58c-0.34,0.66 -0.82,1.49 -1.16,2.16l-6.5 13.44c-0.34,0.65 -0.83,1.48 -1.19,2.11l-2.53 4.06c-0.38,0.62 -0.95,1.39 -1.33,2.01l-34.83 68.3c-0.34,0.66 -0.8,1.5 -1.15,2.15l-25.84 47.15c-0.43,0.56 -1.01,1.34 -1.43,1.91l-8.87 14.6c-0.33,0.73 -0.65,1.64 -0.97,2.38l-5.06 11.47c-3.11,6.01 -3.24,5.81 -6.1,10.43l-45.06 81.36c-0.46,0.92 -1.68,3.64 -2.12,4.57l-4.26 8.96c-0.33,0.67 -0.81,1.5 -1.16,2.16l-5.53 11.16c-1.55,3.24 -2.13,4.41 -3.28,6.64l-11.13 22.09c-0.35,0.67 -0.83,1.49 -1.17,2.16l-58.53 110.99c-0.34,0.65 -0.84,1.47 -1.19,2.11l-23.48 39.8c-2.45,5.25 -0.32,1.18 -3.48,6.29l-21.82 41.43c-0.35,0.66 -0.83,1.49 -1.17,2.16l-2.31 4.39c-1.75,3.58 -3.23,7.15 -5.33,11.24l-28.78 54.34c-0.33,0.66 -0.8,1.49 -1.15,2.15l-164.06 307.93c-0.38,0.63 -0.82,1.51 -1.19,2.15l-19.76 40.05c-0.36,0.63 -0.87,1.45 -1.23,2.08l-58.7 107.54c-0.34,0.67 -0.82,1.49 -1.16,2.17l-22.09 44.45c-0.93,1.92 -2.08,4.7 -3.17,6.73l-22.25 40.91c-0.34,0.66 -0.82,1.5 -1.16,2.16 -0.34,0.68 -0.82,1.51 -1.15,2.19l-10.91 18.9c-6.6,10.36 -10.96,26.02 -18.18,34.92 -11.77,14.51 -8.4,2.03 -14.4,22.6l-10.18 19.34c-0.42,0.58 -0.99,1.36 -1.39,1.96l-11.27 22.08c-0.34,0.66 -0.82,1.49 -1.16,2.16l-104.19 198.24c-0.37,0.66 -0.88,1.47 -1.23,2.15l-8.99 20.86c-0.36,0.62 -0.93,1.4 -1.29,2.02l-90.54 165.54c-1.64,3.43 -3.3,7.43 -5.4,11.12l-9.04 17.66c-0.32,0.71 -0.71,1.58 -1.03,2.28 -0.31,0.7 -0.73,1.55 -1.06,2.25l-22.26 40.91c-10.84,23.78 -9.23,14.29 -18.88,30.91l-7.46 15.82c-0.34,0.67 -0.82,1.5 -1.17,2.16l-39.99 79.6c-0.37,0.62 -0.93,1.41 -1.3,2.01l-88.33 161.05c-0.34,0.66 -0.82,1.49 -1.16,2.16l-9.97 19.94c-2.63,5.08 -3.48,7.35 -5.38,11.3l-28.9 54.21c-1.54,3.25 -2.13,4.43 -3.27,6.64 -0.34,0.66 -0.82,1.49 -1.16,2.15l-6.57 13.43c-0.33,0.67 -0.76,1.53 -1.1,2.2 -0.33,0.66 -0.8,1.5 -1.14,2.16l-3.5 6.48c-2.53,5 -2.95,6.56 -5.32,11.3l-14.86 28.16c-0.41,0.53 -1.11,1.22 -1.55,1.73l-29.3 50.73c-0.46,0.91 -1.65,3.67 -2.09,4.6 -1.2,2.53 -2.46,5.2 -3.19,6.75l-7.24 16c-3.56,6.89 -2.15,3.49 -3.72,6.19l-2.5 4.19c-2.56,4.74 -3.1,6.97 -5.31,11.35l-35.58 67.43c-0.35,0.66 -0.83,1.49 -1.18,2.15l-3.35 6.69c-1.08,2.26 -1.84,4.2 -3.13,6.78 -0.34,0.67 -0.81,1.51 -1.15,2.16 -0.34,0.67 -0.82,1.5 -1.16,2.16l-5.51 11.19c-5.65,12.2 -9.44,18.75 -20.12,25.02l2.64 17.46c1.09,14.38 12.43,39.44 18.53,55.04 1.77,4.52 2.49,8.1 4.03,12.59 3.33,9.67 2.27,5.73 4.99,11.63 33.68,73.31 43.01,102.76 84.75,184.49l166.66 272.1 74.96 97.87c4.73,5.18 3.23,4.07 8.79,8.35 7.89,2.81 9.48,9.57 23.32,9.51 0.95,-11.61 0.14,-6.4 4.55,-15.39l51.58 -94.72c4.73,-9.77 8.25,-16.79 13.25,-26.63l19.31 -33.84c7.04,-11.56 6.87,-25.25 15.07,-34.77 11.29,-13.09 9.59,-27.72 18.26,-38.27l12.12 -14.51c2.58,-5.13 1.09,-3.37 2.75,-7.23l12.93 -20.27c3.58,-5.37 3.83,-5.68 7.47,-12.47l3.35 -6.62c1.74,-3.92 1.17,-2.95 2.77,-7.22l47.15 -85.82c0.34,-0.65 0.82,-1.49 1.15,-2.16l8.82 -17.78c0.35,-0.67 0.82,-1.49 1.16,-2.17l4.21 -9.08c0.34,-0.69 0.78,-1.53 1.12,-2.21l61.61 -114.53c0.37,-0.65 0.86,-1.48 1.2,-2.14 0.35,-0.7 0.72,-1.59 1.04,-2.31l85.68 -160.23c0.36,-0.64 0.86,-1.46 1.21,-2.11l12.24 -24.32c0.35,-0.67 0.82,-1.5 1.16,-2.18l4.16 -9.13c0.34,-0.69 0.74,-1.56 1.08,-2.25l4.86 -8.43c0.39,-0.59 0.98,-1.37 1.39,-1.94 7.46,-10.58 7.32,-17.06 14,-29.22 9.25,-16.87 8.6,-5.81 19.88,-33.34l7.54 -12.58c10.07,-13.65 1.97,-22.43 1.59,-41.76l-40.85 -205.49c-1.04,-8.95 -3.44,-26.41 -5.35,-34.54l-17.32 -148.89c-3.29,-63.97 -13.32,-225.59 -4.79,-284.04l55.06 -400.35 23.31 -103c2.18,-10.69 6.34,-19.83 8.69,-31.2 14.59,-70.41 50.56,-143.41 90.37,-202.14 22.84,-33.7 59.91,-70.65 90.84,-95.29 3.31,-2.63 2.05,-1.76 5.43,-4.55l168.36 -90.88c13.96,-4.4 17.54,-6.6 32.7,-10.52l211.51 -37.76c67.96,-5.21 168.72,5.9 239.15,10.37l56.41 2.7c0.79,-9.49 -0.42,-3.44 2.13,-11.14l22.15 -44.34c0.34,-0.67 0.81,-1.5 1.15,-2.16 0.35,-0.67 0.83,-1.5 1.17,-2.16l27.51 -48.96c0.39,-0.59 0.93,-1.4 1.3,-2.01l38.27 -74.76c0.37,-0.61 0.95,-1.38 1.33,-1.99l36.95 -69.41c0.33,-0.68 0.77,-1.53 1.1,-2.21 1.53,-3.12 2.24,-5.17 4.22,-9.09l2.32 -4.32c0.35,-0.67 0.83,-1.49 1.17,-2.16l6.47 -13.47c0.35,-0.66 0.82,-1.5 1.17,-2.16l19.27 -33.92c5.53,-7.47 -0.05,1.97 5.31,-7.97l7.66 -15.61c0.35,-0.66 0.82,-1.5 1.16,-2.17l18.73 -37.78c1.6,-2.88 3.51,-6.14 4.87,-8.42l5 -8.3c3.08,-6.24 3.18,-9.87 6.56,-16.7 8.48,-17.11 18.66,-28.01 26.82,-46.3l7.69 -12.27c0.38,-0.62 0.87,-1.45 1.23,-2.09l54.07 -105.48c0.33,-0.68 0.81,-1.5 1.15,-2.17l12.56 -24.02c0.37,-0.6 0.95,-1.39 1.32,-2l13.64 -26.23c2.86,-5.71 1.43,-3.66 5.11,-8.22 20.72,-25.7 7.65,-21.83 23.58,-42.88 0.43,-0.56 1.06,-1.3 1.49,-1.85 0.59,-0.77 2.45,-2.83 3.02,-3.62l9.11 -24.11c0.71,-1.73 27.14,-43.11 44.45,-78.53l5.37 -11.26c0.35,-0.66 0.83,-1.5 1.17,-2.16l36.51 -66.53c0.33,-0.69 0.74,-1.55 1.08,-2.23l44.11 -82.22c0.38,-0.61 0.94,-1.39 1.3,-2.02 0.36,-0.64 0.83,-1.48 1.17,-2.15l10.28 -19.64c7.06,-9.88 10.48,-23.7 18.54,-31.24 -20.91,-0.07 -43.78,2.52 -55.72,-6.66l-5.23 0 -152.1 0c-55.09,0.84 -109.48,3.5 -164.84,10.88 -14.75,1.97 -35.22,1.95 -50.35,6.15l-94.87 14.81c-8.14,1.09 -15.98,1.2 -23.73,2.85l-160.24 35.86c-40.28,10.42 -66.49,15.69 -109.52,30.08 -7.77,2.61 -16.93,4.05 -24.17,5.74z"/>
   <path class="fil1" d="M535.86 3270.38l-2.64 -17.46c10.68,-6.27 14.47,-12.82 20.12,-25.02l5.51 -11.19c0.34,-0.66 0.82,-1.49 1.16,-2.16 0.34,-0.65 0.81,-1.49 1.15,-2.16 1.29,-2.58 2.05,-4.52 3.13,-6.78l3.35 -6.69c0.35,-0.66 0.83,-1.49 1.18,-2.15l35.58 -67.43c2.21,-4.38 2.75,-6.61 5.31,-11.35l2.5 -4.19c1.57,-2.7 0.16,0.7 3.72,-6.19l7.24 -16c0.73,-1.55 1.99,-4.22 3.19,-6.75 0.44,-0.93 1.63,-3.69 2.09,-4.6l29.3 -50.73c0.44,-0.51 1.14,-1.2 1.55,-1.73l14.86 -28.16c2.37,-4.74 2.79,-6.3 5.32,-11.3l3.5 -6.48c0.34,-0.66 0.81,-1.5 1.14,-2.16 0.34,-0.67 0.77,-1.53 1.1,-2.2l6.57 -13.43c0.34,-0.66 0.82,-1.49 1.16,-2.15 1.14,-2.21 1.73,-3.39 3.27,-6.64l28.9 -54.21c1.9,-3.95 2.75,-6.22 5.38,-11.3l9.97 -19.94c0.34,-0.67 0.82,-1.5 1.16,-2.16l88.33 -161.05c0.37,-0.6 0.93,-1.39 1.3,-2.01l39.99 -79.6c0.35,-0.66 0.83,-1.49 1.17,-2.16l7.46 -15.82c9.65,-16.62 8.04,-7.13 18.88,-30.91l22.26 -40.91c0.33,-0.7 0.75,-1.55 1.06,-2.25 0.32,-0.7 0.71,-1.57 1.03,-2.28l9.04 -17.66c2.1,-3.69 3.76,-7.69 5.4,-11.12l90.54 -165.54c0.36,-0.62 0.93,-1.4 1.29,-2.02l8.99 -20.86c0.35,-0.68 0.86,-1.49 1.23,-2.15l104.19 -198.24c0.34,-0.67 0.82,-1.5 1.16,-2.16l11.27 -22.08c0.4,-0.6 0.97,-1.38 1.39,-1.96l10.18 -19.34c6,-20.57 2.63,-8.09 14.4,-22.6 7.22,-8.9 11.58,-24.56 18.18,-34.92l10.91 -18.9c0.33,-0.68 0.81,-1.51 1.15,-2.19 0.34,-0.66 0.82,-1.5 1.16,-2.16l22.25 -40.91c1.09,-2.03 2.24,-4.81 3.17,-6.73l22.09 -44.45c0.34,-0.68 0.82,-1.5 1.16,-2.17l58.7 -107.54c0.36,-0.63 0.87,-1.45 1.23,-2.08l19.76 -40.05c0.37,-0.64 0.81,-1.52 1.19,-2.15l164.06 -307.93c0.35,-0.66 0.82,-1.49 1.15,-2.15l28.78 -54.34c2.1,-4.09 3.58,-7.66 5.33,-11.24l2.31 -4.39c0.34,-0.67 0.82,-1.5 1.17,-2.16l21.82 -41.43c3.16,-5.11 1.03,-1.04 3.48,-6.29l23.48 -39.8c0.35,-0.64 0.85,-1.46 1.19,-2.11l58.53 -110.99c0.34,-0.67 0.82,-1.49 1.17,-2.16l11.13 -22.09c1.15,-2.23 1.73,-3.4 3.28,-6.64l5.53 -11.16c0.35,-0.66 0.83,-1.49 1.16,-2.16l4.26 -8.96c0.44,-0.93 1.66,-3.65 2.12,-4.57l45.06 -81.36c2.86,-4.62 2.99,-4.42 6.1,-10.43l5.06 -11.47c0.32,-0.74 0.64,-1.65 0.97,-2.38l8.87 -14.6c0.42,-0.57 1,-1.35 1.43,-1.91l25.84 -47.15c0.35,-0.65 0.81,-1.49 1.15,-2.15l34.83 -68.3c0.38,-0.62 0.95,-1.39 1.33,-2.01l2.53 -4.06c0.36,-0.63 0.85,-1.46 1.19,-2.11l6.5 -13.44c0.34,-0.67 0.82,-1.5 1.16,-2.16l21.02 -35.58c0.37,-0.58 0.91,-1.39 1.26,-2l5.52 -14.29c0.31,-0.75 0.68,-1.62 1.01,-2.36l10.83 -19.23c0.4,-0.59 0.93,-1.42 1.33,-2.01l2.79 -3.89c0.41,-0.57 1.02,-1.34 1.43,-1.9 1.44,-2 3.86,-5.14 4.19,-5.7 0.36,-0.6 0.87,-1.42 1.2,-2.06l76.83 -152.47c0.44,-0.92 1.62,-3.68 2.07,-4.6l4.62 -8.71c0.35,-0.67 0.82,-1.5 1.15,-2.17l5.23 -11.37c2.57,-5.15 0.8,-2.04 3.55,-6.52 0.51,-0.85 2.1,-3.22 2.66,-4.02 0.41,-0.59 0.99,-1.38 1.42,-1.94l9.29 -13.78c0.34,-0.69 0.67,-1.61 1.01,-2.3 0.34,-0.7 0.69,-1.61 1.04,-2.31l26.55 -48.83c-11.75,1.04 -24.98,11.54 -29.07,-0.53 -29.14,15.43 -72.27,24.31 -103.53,36.06l-50.94 18.86c-12.16,4.34 -13.33,4.64 -24.07,9.18l-49.91 19.88c-3.85,1.65 -7.89,3.15 -11.67,4.94 -68.28,32.46 -139.91,58.87 -205.44,97.03l-46.09 23.71c-6.07,3.19 -13.83,8.35 -20.76,12.47l-69.83 39.86c-29.23,17.64 -58.71,33.67 -86.85,52.75l-147.61 98.34c-36.79,26.5 -76.25,52.76 -109.21,83.57 -2.55,2.39 -6.54,5.9 -8.9,7.72l-123.61 115.71c-2.67,3.14 -2,2.53 -4.54,5.44 -6.07,6.93 -9.75,9.68 -15.78,17.45l-81 95.17c-0.41,0.58 -0.9,1.44 -1.31,2.02 -0.41,0.57 -0.92,1.42 -1.33,1.98l-140.25 208.77c-26.3,43.67 -51.68,90.34 -72.44,136.98l-85.45 210.38c-2.25,6.06 -3.27,11.27 -4.5,15.43l-48.14 161.28c-12.89,61.45 -35.84,147.41 -41.7,207.6 -3.4,34.9 -8.99,59.12 -10.5,95.88 -0.54,13.12 -4.41,20.92 -5.89,30.67l-4.22 65.6c-0.07,66.81 -10.99,133.68 -3.7,200.05 4.65,42.27 1.68,81.38 6.65,126.32 1.21,10.9 -0.31,22.07 0.55,32.69 1.19,14.43 5.38,15.65 6.51,30.06 2.81,35.97 7.6,95.54 14.88,128.06 3.14,14.09 3.67,10.57 5.45,27.79l11.07 58.74c2.04,14.48 3.81,18.35 6.87,29.69l70.06 249.06c4.67,12.99 2.57,18.4 10.95,25.16z"/>
   <path class="fil1" d="M2350.95 4453.79l0 0zm0 0l0 0zm-9.97 -9.97c0.33,-0.34 0.99,0.52 0.99,0.99l-0.99 -0.99zm-6.65 -3.33l0 0zm-321.65 -412.2c2.22,17.36 57.5,93.29 70.97,111.12l37 52.75c7.63,10.21 12.93,16.27 20.42,26.1l7.4 9.23c39.77,47.26 69.35,87.26 113.04,132.93l22.6 23.93c11.33,12.23 46.93,43.79 50.22,56.14l-315.73 -278.79c-14,-3.8 -19.99,-14.73 -29.62,-23.99l-26.17 -22.29 -30.47 62.5c-0.41,0.58 -0.99,1.36 -1.41,1.93 -0.41,0.57 -1.04,1.32 -1.46,1.88l-18.56 31.19c-10.07,16.97 -7.47,18.95 -13.46,29.76 -0.3,0.55 -3.02,4.62 -3.93,6.07l-10.66 19.12c-16.32,39.12 -8.28,9.35 -23.11,40.07 -0.33,0.69 -0.76,1.57 -1.09,2.26l-19.91 39.93c-0.34,0.68 -0.82,1.51 -1.16,2.18 -0.35,0.66 -0.83,1.49 -1.17,2.15 -0.35,0.67 -0.83,1.5 -1.16,2.16 -1.18,2.27 -1.74,3.4 -3.29,6.63 -1.59,3.33 -2.65,5.72 -4.35,9l-38.72 74.29c-0.34,0.68 -0.82,1.5 -1.17,2.17l-23.37 43.09c-0.35,0.67 -0.79,1.53 -1.16,2.19 -7.05,12.69 -11.7,12.99 -17.95,25.25 -1.5,2.97 -1.5,2.79 -2.89,6.92 -2.52,7.46 -1.56,8.58 -4.89,15.28 -2.89,5.82 -3.91,0.08 -7.28,12.07 8.45,6.34 20.54,11.12 26.51,19.95 7.09,11.84 -2.55,1.99 10.49,8.74l472.22 179.28 154.44 41.66c11.99,2.5 24.6,6.75 34.47,8.73l325.81 63.05c28.57,3.64 46.56,11.01 78.73,11.01l9.07 -130.55 -0.49 -416.55c-9.95,-67.96 -8.92,-246.35 -22.89,-326.14 -2.32,-13.27 -5.26,-48.01 -5.62,-64.19l-10.16 -92.9c-0.9,-12.34 -4.69,-19.4 -5.98,-30.57l-85.49 -472.96 -52.64 -190.02c-4.11,-11.11 -5.25,-17.14 -8.69,-27.87l-64.53 -181.46c-4.68,-12.19 -2.49,-16.74 -10.5,-24.74l-12.7 25.08c-0.37,0.61 -0.93,1.4 -1.3,2l-68.83 127.25c-0.35,0.64 -0.85,1.47 -1.2,2.12l-26.32 53.41c-0.34,0.69 -0.78,1.54 -1.12,2.22l-31.08 55.36c-0.35,0.67 -0.83,1.49 -1.17,2.15l-11.14 22.1c-0.33,0.67 -0.8,1.5 -1.14,2.17l-54.38 105.2c-2.61,4.49 -1.91,3.15 -5.08,8.27 -0.37,0.6 -0.95,1.37 -1.32,1.98l-18.76 37.71c-0.37,0.64 -0.81,1.51 -1.18,2.15l-63.9 118.94c-1.73,2.87 -2.98,5.05 -4.85,8.42l-20.15 39.73c-0.54,0.84 -2.27,3.03 -2.79,3.87l-12.38 27.38c-1.35,2.81 -2.87,6.07 -4.64,8.78 -0.37,0.58 -4.48,5.82 -5.78,7.54 -0.42,0.56 -1.02,1.34 -1.43,1.89 -0.41,0.56 -1,1.34 -1.41,1.91l-80.97 151.62c-0.35,0.67 -0.83,1.5 -1.17,2.16 -0.35,0.66 -0.83,1.49 -1.16,2.16 -0.35,0.66 -0.82,1.49 -1.15,2.17l-58.54 107.62c-0.33,0.7 -0.69,1.58 -1.01,2.31l-9.01 17.66c-0.36,0.63 -0.87,1.45 -1.21,2.09 -1.03,1.89 -2.34,4.92 -3.21,6.71l-44.35 82c-0.35,0.66 -0.83,1.5 -1.17,2.16l-5.38 11.25c-0.36,0.69 -0.8,1.54 -1.16,2.23 -2.58,4.85 -11.14,10.42 -5.67,23.49l6.95 17.05z"/>
   <path class="fil1" d="M2889.31 1877.54c4.9,17.8 28.07,53.08 37.45,72.29l145.4 330.26c4.77,-7.99 -0.61,-17.59 -3.07,-26.58 -1.66,-6.04 0.73,-9.43 3.01,-13.24l2.74 -4.13c14.26,-24.95 -0.18,-6.58 16.41,-30.37 2.5,-3.6 1.24,-1.54 4.32,-5.65l18.36 -38.15c0.39,-0.58 1.05,-1.3 1.46,-1.87l31.2 -55.25c1.37,-2.82 1.73,-4.03 3.13,-6.83 0.33,-0.68 0.8,-1.51 1.15,-2.18l70.84 -135.23c6.64,-13.73 15.95,-22.96 21.87,-37.99 1.39,-3.54 1.22,-4.31 2.62,-7.35 2.83,-6.09 -0.05,-0.87 3.67,-6.26 0.4,-0.57 1.07,-1.28 1.48,-1.84l16.89 -29.67c0.34,-0.69 0.77,-1.53 1.12,-2.22l23.49 -46.3c0.35,-0.66 0.85,-1.46 1.19,-2.14l7.3 -19.3c2.51,-5.73 1.72,-3.67 3.4,-6.55l40.24 -72.77c0.37,-0.63 0.93,-1.4 1.29,-2.03 5.06,-8.8 2.23,-3.96 6.45,-13.52 7.18,-16.3 22.11,-29.65 27.75,-48.73l22.98 -43.46c0.34,-0.67 0.82,-1.49 1.17,-2.16l11.12 -22.12c0.33,-0.67 0.8,-1.51 1.14,-2.18l21.14 -35.37c0.13,-0.26 2.91,-6.64 3.06,-6.92l76.78 -145.93c0.31,-0.74 0.58,-1.68 0.91,-2.4l34.3 -62.09c0.48,-0.88 1.86,-3.42 2.33,-4.32 2.87,-5.55 3.61,-7.92 6.43,-13.52l41.09 -75.24c2.88,-4.7 1.05,-1.55 3.51,-6.47l6.35 -13.59c0.34,-0.67 0.79,-1.51 1.15,-2.17 7.69,-14.27 13.63,-30.45 23.32,-43.13l11.77 -21.54c4.82,-16.06 14.25,-23.36 21.41,-38.39l6.83 -13.11c0.27,-0.54 2.9,-6.44 3.1,-6.87l44.61 -81.69c2.58,-4.85 3.39,-7.56 5.25,-11.38l47.38 -88.87c7.59,-9.81 8.92,-19.07 13.71,-29.55 0.32,-0.7 0.69,-1.59 1.04,-2.27 0.34,-0.66 0.84,-1.47 1.2,-2.1l44.29 -82.04c3.57,-6.46 3.81,-6.7 7.39,-12.54l3.75 -6.23c0.76,-1.42 2.47,-5.25 3.2,-6.79 1.55,-3.23 1.96,-4.11 3.28,-6.68l10.05 -19.85c0.36,-0.64 0.9,-1.43 1.27,-2.06 9.16,-15.72 14.57,-33.03 26.2,-46.92 5.43,-6.47 3.29,-12.58 9.72,-19.19 6.39,-6.55 0.51,2.71 16.96,0.01l-3.77 -3.26c-5.76,-4.14 -1.21,-1.25 -6.14,-4.13l-364.81 -152.82 5.82 9.98c-2.36,2.48 -5.51,5.04 -7.9,8.74 -2.17,3.36 -3.85,8.14 -5.34,11.27l-9.92 19.98c-0.33,0.69 -0.77,1.54 -1.12,2.22 -0.33,0.67 -0.8,1.5 -1.15,2.17l-54.95 101.27c-0.35,0.68 -0.74,1.57 -1.07,2.26l-13.81 29.4c-8.5,14.78 6.09,-9.91 -2.55,4.09 -3.91,6.33 -2.48,3.36 -6.25,10.38l-33.38 59.69c-0.35,0.67 -0.82,1.5 -1.16,2.17 -0.34,0.68 -0.77,1.53 -1.11,2.21l-73.61 139.12c-0.37,0.62 -0.95,1.39 -1.33,2l-52.23 100.65c-0.34,0.67 -0.81,1.51 -1.16,2.17 -0.34,0.66 -0.81,1.5 -1.16,2.15l-22.26 44.23c-0.36,0.63 -0.85,1.47 -1.21,2.11 -0.37,0.64 -0.82,1.49 -1.2,2.13 -0.37,0.63 -0.85,1.47 -1.23,2.1l-11.69 21.56c-0.33,0.67 -0.8,1.5 -1.14,2.17l-30.93 62.14c-0.37,0.64 -0.84,1.49 -1.22,2.11l-8.72 11.23c-8.3,10.6 -11.67,26.11 -19.11,37.39 -0.38,0.6 -0.98,1.36 -1.39,1.94 -0.4,0.56 -1.05,1.29 -1.47,1.85l-88.99 170.28c-0.12,0.21 -3.53,5.16 -4.07,5.9l-15.88 27.33c-0.36,0.64 -0.85,1.47 -1.22,2.11 -0.36,0.63 -0.85,1.47 -1.22,2.1l-37.24 72.46c-0.23,0.42 -3.69,6.08 -3.78,6.2l-9.82 13.44c-2.11,3.89 -2.29,5.03 -4.31,8.99l-31.03 62.02c-0.34,0.66 -0.82,1.5 -1.17,2.16l-12.58 24c-0.4,0.57 -0.99,1.35 -1.4,1.91l-5.81 7.49c-0.39,0.6 -0.91,1.41 -1.28,2.03l-7.68 15.59c-0.35,0.67 -0.82,1.5 -1.16,2.17 -0.34,0.66 -0.82,1.49 -1.16,2.16l-7.64 15.63c-0.34,0.66 -0.82,1.49 -1.16,2.16l-37.97 58.43c-5.78,6.34 -12.18,34.52 -19.76,46.71l-2.72 3.91c-5.69,9.45 2.51,-5.6 -2.44,4.17l-18.73 24.22c1.42,17.7 23.65,44.6 29.54,66.49z"/>
   <path class="fil1" d="M3411.16 4553.57l112.98 9.94c21.04,-0.11 42.15,-0.1 63.21,0.02l171.35 -14.76c10.93,-2.29 10.84,-3.59 24.13,-5.79 7.18,-1.18 20.27,-2.25 28.81,-4.43 64.93,-16.59 75.89,-16.23 143.62,-42.51 37.45,-14.52 91.12,-40.99 120.33,-65.79l16.89 -13.03c52.22,-37.64 93.07,-114.9 93.17,-189.36l-0.13 -186.29c-0.34,-50.99 2.09,-31.99 28.95,-64.12l80.74 -98.74c0.42,-0.58 1,-1.35 1.41,-1.92l49.23 -80.41c2.98,-5.85 3.1,-6.06 5.18,-11.44l4.56 -12.07c6.55,-18.02 8.33,-33.66 2.62,-53.57 -10.35,-36.05 -47.99,-53.78 -70.57,-69.04l-25.66 -24.2c14.67,-16.88 27.07,-31.49 57.16,-24.09 112.86,27.74 85.72,-29.38 73.26,-103.03l-6.55 -124.61c6.62,-48.58 -0.6,-66.86 45.06,-84.57 9.82,-3.81 45.8,-9.77 67.61,-18.81 11.65,-4.83 19.86,-9.49 30.5,-16.04 33.67,-20.76 49.21,-70.53 52.08,-120.85 1.19,-20.84 -8.69,-92.12 -14.67,-115.02 -11.39,-43.65 -10.59,-52.23 -28.2,-104.75 -2.44,-7.27 -3.03,-7.12 -5.48,-14.47 -2.56,-7.64 -2.9,-10.82 -5.38,-17.88 -20.1,-57.19 -35.24,-89.25 -57.06,-142.33 -6.44,-15.67 3.07,-6.32 -9.7,-14.4 1.12,11.09 4.28,18.95 8.5,28.64 4.55,10.45 5.31,13.01 8.03,24.55 -5.14,3.94 -3.07,0.97 -7.42,4.93l-11.15 19.07c-0.33,0.67 -0.8,1.5 -1.14,2.17l-9.96 19.95c-0.34,0.67 -0.82,1.49 -1.16,2.16l-21.11 42.07c-0.78,1.55 -2.43,5.27 -3.17,6.85l-27.15 45.83c-0.4,0.59 -0.96,1.39 -1.35,2l-4.82 8.57c-0.33,0.69 -0.75,1.54 -1.07,2.26 -0.32,0.75 -0.69,1.61 -1,2.37l-27.9 55.13c-0.34,0.64 -0.81,1.5 -1.17,2.11l-93.53 178.84c-8.29,9 -10.35,10.96 -13.01,24.09 -2.96,14.68 -11.91,16.14 -18.79,27.41l-3.28 6.72c-0.35,0.66 -0.78,1.52 -1.13,2.17 -0.35,0.65 -0.84,1.47 -1.19,2.11l-46.02 93.61c-0.37,0.62 -0.82,1.48 -1.2,2.1l-17.93 32c-1.63,3.32 -2.26,5.18 -4.2,9.08 -0.34,0.67 -0.8,1.5 -1.15,2.17l-22.19 44.26c-7.91,13.78 -15.42,17.78 -20.78,32.55l-59.08 110.28c-0.37,0.64 -0.84,1.49 -1.19,2.16l-28.68 57.74c-1.41,2.75 -1.78,3.4 -3.33,6.72l-45.25 81.05c-10.36,24.17 -25.52,45.96 -37.33,68.97l-78.28 154.31c-26.19,38.6 -11.38,22.2 -23.15,43.41 -0.15,0.26 -8.3,9.03 -9.44,10.31 -6.61,7.47 -4.11,3.32 -7.48,12.83 -2.68,7.57 -1.96,9.79 -5.94,17.17l-38.07 68.24c-0.38,0.62 -0.91,1.42 -1.28,2.04l-30.45 62.7c-9.19,17.18 -7.84,9.69 -17.77,35.52 -2.76,7.2 -0.97,2.86 -3.25,6.53l-9.25 10.52c-0.47,0.5 -1.2,1.17 -1.68,1.66l-29.24 57.41c-0.34,0.67 -0.82,1.49 -1.16,2.16l-28.28 51.42c-0.39,0.62 -0.91,1.44 -1.28,2.08 -0.39,0.65 -0.83,1.52 -1.19,2.19l-8.85 17.74c-0.34,0.68 -0.78,1.54 -1.11,2.23l-37.22 75.74c-10.97,18.36 11.01,-15.43 -4.33,5.52 -7.27,9.93 -1.36,-1.31 -6.94,13.34 -0.3,0.78 -0.5,1.72 -0.81,2.49l-3.04 6.73c-0.36,0.6 -0.93,1.38 -1.32,1.95l-4.49 5.42c-0.44,0.53 -1.11,1.24 -1.55,1.78 -13.75,17.02 -19.15,39.71 -31.82,57.96 -3.81,5.49 -1.25,1.25 -4.29,5.67l-18.63 40.97c-40.58,0.75 -73.14,-2.19 -115.56,-2.37z"/>
   <path class="fil1" d="M1623.1 3068.58l68.27 256.51c2.62,7.82 2.92,11.57 4.86,18.41l61.67 177.65c2.62,6.69 3.69,7.47 6.69,16.58l41.31 101.3 10.65 -0.33c0.68,9.1 1.39,8.89 3.27,16.31 7.28,-10.59 3.52,-2.3 8.64,-12.55 1.05,-2.11 2.46,-5.77 4.2,-9.24 0.33,-0.69 0.81,-1.52 1.16,-2.19 0.34,-0.68 0.82,-1.5 1.17,-2.17l28.89 -57.64c0.4,-0.61 0.98,-1.39 1.39,-1.98 0.57,-0.81 2.38,-2.94 2.96,-3.72l24.24 -45.38c0.33,-0.68 0.81,-1.5 1.16,-2.17 0.34,-0.67 0.82,-1.49 1.17,-2.16l54.44 -101.8c0.34,-0.65 0.79,-1.5 1.13,-2.17l44.07 -85.52c0.34,-0.69 0.78,-1.54 1.13,-2.24l23.42 -46.39c0.34,-0.66 0.81,-1.5 1.14,-2.16l24.03 -42.49c0.36,-0.64 0.81,-1.5 1.17,-2.15l2.35 -4.31c13.67,-23.47 6.39,-2.37 17.93,-35.06l15.46 -24.58c0.59,-1.07 3.03,-6.33 4.28,-9 0.32,-0.69 0.77,-1.52 1.08,-2.22l111.93 -210.47c3.87,-8.78 5.26,-17.22 12,-24.9 1.39,-1.59 6.46,-6.46 6.59,-6.63 5.73,-7.21 1.85,-9.85 19.1,-37.29 0.37,-0.6 0.87,-1.43 1.23,-2.05l9.84 -20.05c0.35,-0.67 0.82,-1.5 1.16,-2.16 1.35,-2.62 3.05,-6.38 4.29,-8.94 1.51,-3.14 1.94,-3.95 3.36,-6.69l45.45 -84.1c1.6,-3.34 2.66,-5.71 4.37,-9.01l11.11 -22.12c0.35,-0.66 0.8,-1.5 1.14,-2.17l16.39 -23.73c0.4,-0.53 1.02,-1.29 1.38,-1.85l5.72 -17.14c6.57,-21.06 8.4,-5.7 22.4,-44.17 2.49,-6.84 1.32,-3.94 4.67,-8.97l8.27 -11.54c0.37,-0.62 0.81,-1.49 1.16,-2.14l5.22 -11.38c0.35,-0.68 0.82,-1.53 1.19,-2.19 6.47,-11.54 8.74,-10.86 9.43,-27.06 -3.75,-20.18 -34.68,-56.61 -46.38,-76.28l-135.68 -173.44 -105.81 -106.99c-8.43,-7.91 -2.89,-6.6 -14.24,-7.94 -6.23,-1.44 -14.47,-2.89 -16.02,-8.19 -0.29,-1 -1.18,-1.07 -1.82,-1.55 -4.27,16.14 -14.97,31.62 -23.07,47.21l-59.25 110.57c-6.81,8.36 1.25,-2.46 -4.51,5.36 -2.69,3.64 -2.42,3.35 -5.04,8.08l-38.14 74.72c-2.71,6.27 -2.54,7.33 -6.02,14.07l-11.12 18.88c-0.37,0.61 -0.88,1.43 -1.25,2.05l-54.07 102.47c-0.45,0.49 -1.2,1.13 -1.64,1.63 -6.41,7.45 -6.47,14.94 -11.74,24.55l-140.68 261.56c-0.37,0.61 -0.89,1.42 -1.24,2.04 -1.49,2.59 -1.47,2.6 -3.36,6.47 -1.59,3.25 -1.59,3.54 -3.18,6.84l-41.02 75.37c-0.35,0.66 -0.83,1.49 -1.17,2.16l-18.71 37.77c-0.47,0.91 -1.86,3.47 -2.34,4.35l-10 16.65c-16.87,29.12 -3.71,37.81 -13.23,51.2z"/>
   <path class="fil1" d="M2224.66 1406.05c6.93,4.07 124.5,23.51 150.45,31.8l56.96 16.17c29.54,7.59 109.47,39.52 131.62,51.18l23.54 13.01c28.31,17.78 54.18,41.21 62.84,46.62 8.04,-2.43 4.16,-5.85 8.18,-14.41l15.59 -28.04c0.46,-0.52 1.2,-1.17 1.65,-1.68 0.65,-0.73 2.63,-2.63 3.22,-3.39 5.97,-7.72 1.78,-4.93 9.4,-20.37 0.34,-0.68 0.81,-1.5 1.16,-2.17l38.71 -74.29c0.36,-0.68 0.8,-1.53 1.16,-2.18l18.92 -30.93c0.35,-0.67 0.82,-1.5 1.16,-2.16l9.97 -19.96c0.34,-0.66 0.82,-1.49 1.16,-2.16l9.97 -19.95c0.35,-0.66 0.81,-1.49 1.15,-2.16l26.49 -49.98c0.36,-0.65 0.83,-1.49 1.18,-2.14l9.78 -20.15c0.37,-0.64 0.86,-1.48 1.24,-2.11 15.1,-24.27 12.45,-27.18 17.68,-35.53 0.38,-0.62 1.01,-1.36 1.43,-1.94 15.11,-21.44 14.64,-32.67 26.28,-46.88 19.9,-24.29 29.78,-59.99 45.41,-87.42l11.18 -18.71c0.35,-0.66 0.81,-1.51 1.15,-2.17l44.1 -88.72c5.27,-14.65 2.92,-4.8 13.04,-17.16l40.17 -79.35c0.34,-0.66 0.82,-1.5 1.17,-2.16 0.34,-0.66 0.81,-1.5 1.15,-2.16l53.15 -99.71c1.57,-3.25 2.7,-5.76 4.35,-8.99l21.05 -32.21c0.37,-0.58 0.87,-1.41 1.21,-2.04l30.18 -62.94c2.57,-4.51 2.74,-4.45 4.95,-8.32 0.36,-0.64 0.82,-1.49 1.18,-2.13l54.6 -101.61c1.91,-3.83 2.63,-5.9 4.18,-9.1l10.71 -19.3c0.37,-0.61 0.95,-1.39 1.32,-2l30.44 -59.17c0.3,-0.75 0.68,-1.61 1,-2.35 0.31,-0.73 0.72,-1.58 1.04,-2.3l10.69 -19.4c6.19,-8.95 1.07,3.79 4.87,-7.6 -13.27,-6.85 -22.81,2.18 -22.69,-10.38 -18.48,-4.25 -31.08,-8.04 -52.3,-10.96 -18.66,-2.57 -31.69,-7.05 -53.15,-10.01l-84.15 -12.23c-29.82,-3.18 -34.77,-9.45 -86.35,-10.04 -27.22,-0.3 -31.63,-6.64 -56.38,-6.77 -40.69,-0.19 -79.16,-3.09 -123.61,-3.18l-2.12 0c11.94,9.18 34.81,6.59 55.72,6.66 -8.06,7.54 -11.48,21.36 -18.54,31.24l-10.28 19.64c-0.34,0.67 -0.81,1.51 -1.17,2.15 -0.36,0.63 -0.92,1.41 -1.3,2.02l-44.11 82.22c-0.34,0.68 -0.75,1.54 -1.08,2.23l-36.51 66.53c-0.34,0.66 -0.82,1.5 -1.17,2.16l-5.37 11.26c-17.31,35.42 -43.74,76.8 -44.45,78.53l-9.11 24.11c-0.57,0.79 -2.43,2.85 -3.02,3.62 -0.43,0.55 -1.06,1.29 -1.49,1.85 -15.93,21.05 -2.86,17.18 -23.58,42.88 -3.68,4.56 -2.25,2.51 -5.11,8.22l-13.64 26.23c-0.37,0.61 -0.95,1.4 -1.32,2l-12.56 24.02c-0.34,0.67 -0.82,1.49 -1.15,2.17l-54.07 105.48c-0.36,0.64 -0.85,1.47 -1.23,2.09l-7.69 12.27c-8.16,18.29 -18.34,29.19 -26.82,46.3 -3.38,6.83 -3.48,10.46 -6.56,16.7l-5 8.3c-1.36,2.28 -3.27,5.54 -4.87,8.42l-18.73 37.78c-0.34,0.67 -0.81,1.51 -1.16,2.17l-7.66 15.61c-5.36,9.94 0.22,0.5 -5.31,7.97l-19.27 33.92c-0.35,0.66 -0.82,1.5 -1.17,2.16l-6.47 13.47c-0.34,0.67 -0.82,1.49 -1.17,2.16l-2.32 4.32c-1.98,3.92 -2.69,5.97 -4.22,9.09 -0.33,0.68 -0.77,1.53 -1.1,2.21l-36.95 69.41c-0.38,0.61 -0.96,1.38 -1.33,1.99l-38.27 74.76c-0.37,0.61 -0.91,1.42 -1.3,2.01l-27.51 48.96c-0.34,0.66 -0.82,1.49 -1.17,2.16 -0.34,0.66 -0.81,1.49 -1.15,2.16l-22.15 44.34c-2.55,7.7 -1.34,1.65 -2.13,11.14l-56.41 -2.7z"/>
   <path class="fil1" d="M2650.07 1564.83c5.64,5.65 10.67,11.44 16.64,16.84 5.92,5.34 10.56,10.94 16.3,16.94 0.47,0.49 1.17,1.19 1.64,1.68 0.48,0.48 1.18,1.17 1.67,1.65l46.03 50.36c3.06,3.66 4.74,5.39 7.74,8.88l134.56 194.5c6.27,10.83 5.77,15.27 14.66,21.86 -5.89,-21.89 -28.12,-48.79 -29.54,-66.49l18.73 -24.22c4.95,-9.77 -3.25,5.28 2.44,-4.17l2.72 -3.91c7.58,-12.19 13.98,-40.37 19.76,-46.71l37.97 -58.43c0.34,-0.67 0.82,-1.5 1.16,-2.16l7.64 -15.63c0.34,-0.67 0.82,-1.5 1.16,-2.16 0.34,-0.67 0.81,-1.5 1.16,-2.17l7.68 -15.59c0.37,-0.62 0.89,-1.43 1.28,-2.03l5.81 -7.49c0.41,-0.56 1,-1.34 1.4,-1.91l12.58 -24c0.35,-0.66 0.83,-1.5 1.17,-2.16l31.03 -62.02c2.02,-3.96 2.2,-5.1 4.31,-8.99l9.82 -13.44c0.09,-0.12 3.55,-5.78 3.78,-6.2l37.24 -72.46c0.37,-0.63 0.86,-1.47 1.22,-2.1 0.37,-0.64 0.86,-1.47 1.22,-2.11l15.88 -27.33c0.54,-0.74 3.95,-5.69 4.07,-5.9l88.99 -170.28c0.42,-0.56 1.07,-1.29 1.47,-1.85 0.41,-0.58 1.01,-1.34 1.39,-1.94 7.44,-11.28 10.81,-26.79 19.11,-37.39l8.72 -11.23c0.38,-0.62 0.85,-1.47 1.22,-2.11l30.93 -62.14c0.34,-0.67 0.81,-1.5 1.14,-2.17l11.69 -21.56c0.38,-0.63 0.86,-1.47 1.23,-2.1 0.38,-0.64 0.83,-1.49 1.2,-2.13 0.36,-0.64 0.85,-1.48 1.21,-2.11l22.26 -44.23c0.35,-0.65 0.82,-1.49 1.16,-2.15 0.35,-0.66 0.82,-1.5 1.16,-2.17l52.23 -100.65c0.38,-0.61 0.96,-1.38 1.33,-2l73.61 -139.12c0.34,-0.68 0.77,-1.53 1.11,-2.21 0.34,-0.67 0.81,-1.5 1.16,-2.17l33.38 -59.69c3.77,-7.02 2.34,-4.05 6.25,-10.38 8.64,-14 -5.95,10.69 2.55,-4.09l13.81 -29.4c0.33,-0.69 0.72,-1.58 1.07,-2.26l54.95 -101.27c0.35,-0.67 0.82,-1.5 1.15,-2.17 0.35,-0.68 0.79,-1.53 1.12,-2.22l9.92 -19.98c1.49,-3.13 3.17,-7.91 5.34,-11.27 2.39,-3.7 5.54,-6.26 7.9,-8.74l-5.82 -9.98c-24.48,-11.27 -49.29,-17.07 -74.47,-26.09 -12.18,-4.37 -25.17,-7.81 -38.18,-11.68l-207.14 -51.98c-0.12,12.56 9.42,3.53 22.69,10.38 -3.8,11.39 1.32,-1.35 -4.87,7.6l-10.69 19.4c-0.32,0.72 -0.73,1.57 -1.04,2.3 -0.32,0.74 -0.7,1.6 -1,2.35l-30.44 59.17c-0.37,0.61 -0.95,1.39 -1.32,2l-10.71 19.3c-1.55,3.2 -2.27,5.27 -4.18,9.1l-54.6 101.61c-0.36,0.64 -0.82,1.49 -1.18,2.13 -2.21,3.87 -2.38,3.81 -4.95,8.32l-30.18 62.94c-0.34,0.63 -0.84,1.46 -1.21,2.04l-21.05 32.21c-1.65,3.23 -2.78,5.74 -4.35,8.99l-53.15 99.71c-0.34,0.66 -0.81,1.5 -1.15,2.16 -0.35,0.66 -0.83,1.5 -1.17,2.16l-40.17 79.35c-10.12,12.36 -7.77,2.51 -13.04,17.16l-44.1 88.72c-0.34,0.66 -0.8,1.51 -1.15,2.17l-11.18 18.71c-15.63,27.43 -25.51,63.13 -45.41,87.42 -11.64,14.21 -11.17,25.44 -26.28,46.88 -0.42,0.58 -1.05,1.32 -1.43,1.94 -5.23,8.35 -2.58,11.26 -17.68,35.53 -0.38,0.63 -0.87,1.47 -1.24,2.11l-9.78 20.15c-0.35,0.65 -0.82,1.49 -1.18,2.14l-26.49 49.98c-0.34,0.67 -0.8,1.5 -1.15,2.16l-9.97 19.95c-0.34,0.67 -0.82,1.5 -1.16,2.16l-9.97 19.96c-0.34,0.66 -0.81,1.49 -1.16,2.16l-18.92 30.93c-0.36,0.65 -0.8,1.5 -1.16,2.18l-38.71 74.29c-0.35,0.67 -0.82,1.49 -1.16,2.17 -7.62,15.44 -3.43,12.65 -9.4,20.37 -0.59,0.76 -2.57,2.66 -3.22,3.39 -0.45,0.51 -1.19,1.16 -1.65,1.68l-15.59 28.04c-4.02,8.56 -0.14,11.98 -8.18,14.41z"/>
   <path class="fil1" d="M1805.9 3639.03l141.7 287.41c0.51,0.86 1.93,3.36 2.42,4.24 1.53,2.78 1.79,3.41 3.43,6.53l48.1 81.49c7.81,11.15 -1.09,5.62 11.13,9.59l-6.95 -17.05c-5.47,-13.07 3.09,-18.64 5.67,-23.49 0.36,-0.69 0.8,-1.54 1.16,-2.23l5.38 -11.25c0.34,-0.66 0.82,-1.5 1.17,-2.16l44.35 -82c0.87,-1.79 2.18,-4.82 3.21,-6.71 0.34,-0.64 0.85,-1.46 1.21,-2.09l9.01 -17.66c0.32,-0.73 0.68,-1.61 1.01,-2.31l58.54 -107.62c0.33,-0.68 0.8,-1.51 1.15,-2.17 0.33,-0.67 0.81,-1.5 1.16,-2.16 0.34,-0.66 0.82,-1.49 1.17,-2.16l80.97 -151.62c0.41,-0.57 1,-1.35 1.41,-1.91 0.41,-0.55 1.01,-1.33 1.43,-1.89 1.3,-1.72 5.41,-6.96 5.78,-7.54 1.77,-2.71 3.29,-5.97 4.64,-8.78l12.38 -27.38c0.52,-0.84 2.25,-3.03 2.79,-3.87l20.15 -39.73c1.87,-3.37 3.12,-5.55 4.85,-8.42l63.9 -118.94c0.37,-0.64 0.81,-1.51 1.18,-2.15l18.76 -37.71c0.37,-0.61 0.95,-1.38 1.32,-1.98 3.17,-5.12 2.47,-3.78 5.08,-8.27l54.38 -105.2c0.34,-0.67 0.81,-1.5 1.14,-2.17l11.14 -22.1c0.34,-0.66 0.82,-1.48 1.17,-2.15l31.08 -55.36c0.34,-0.68 0.78,-1.53 1.12,-2.22l26.32 -53.41c0.35,-0.65 0.85,-1.48 1.2,-2.12l68.83 -127.25c0.37,-0.6 0.93,-1.39 1.3,-2l12.7 -25.08c-3.16,-12.68 -5.07,-15.02 -9.59,-24.98l-161.95 -323.31c-7.67,-10.9 2.04,-2.74 -9.57,-10.72 -0.69,16.2 -2.96,15.52 -9.43,27.06 -0.37,0.66 -0.84,1.51 -1.19,2.19l-5.22 11.38c-0.35,0.65 -0.79,1.52 -1.16,2.14l-8.27 11.54c-3.35,5.03 -2.18,2.13 -4.67,8.97 -14,38.47 -15.83,23.11 -22.4,44.17l-5.72 17.14c-0.36,0.56 -0.98,1.32 -1.38,1.85l-16.39 23.73c-0.34,0.67 -0.79,1.51 -1.14,2.17l-11.11 22.12c-1.71,3.3 -2.77,5.67 -4.37,9.01l-45.45 84.1c-1.42,2.74 -1.85,3.55 -3.36,6.69 -1.24,2.56 -2.94,6.32 -4.29,8.94 -0.34,0.66 -0.81,1.49 -1.16,2.16l-9.84 20.05c-0.36,0.62 -0.86,1.45 -1.23,2.05 -17.25,27.44 -13.37,30.08 -19.1,37.29 -0.13,0.17 -5.2,5.04 -6.59,6.63 -6.74,7.68 -8.13,16.12 -12,24.9l-111.93 210.47c-0.31,0.7 -0.76,1.53 -1.08,2.22 -1.25,2.67 -3.69,7.93 -4.28,9l-15.46 24.58c-11.54,32.69 -4.26,11.59 -17.93,35.06l-2.35 4.31c-0.36,0.65 -0.81,1.51 -1.17,2.15l-24.03 42.49c-0.33,0.66 -0.8,1.5 -1.14,2.16l-23.42 46.39c-0.35,0.7 -0.79,1.55 -1.13,2.24l-44.07 85.52c-0.34,0.67 -0.79,1.52 -1.13,2.17l-54.44 101.8c-0.35,0.67 -0.83,1.49 -1.17,2.16 -0.35,0.67 -0.83,1.49 -1.16,2.17l-24.24 45.38c-0.58,0.78 -2.39,2.91 -2.96,3.72 -0.41,0.59 -0.99,1.37 -1.39,1.98l-28.89 57.64c-0.35,0.67 -0.83,1.49 -1.17,2.17 -0.35,0.67 -0.83,1.5 -1.16,2.19 -1.74,3.47 -3.15,7.13 -4.2,9.24 -5.12,10.25 -1.36,1.96 -8.64,12.55 -1.88,-7.42 -2.59,-7.21 -3.27,-16.31l-10.65 0.33z"/>
   <path class="fil1" d="M898.57 3912.45c4.24,14.7 98.44,116.3 113.84,131.63l31 32.14c0.69,0.68 2.65,2.64 3.33,3.32l130.72 121.9c0.52,0.44 1.27,1.08 1.8,1.52l23.17 20.05c8.89,6.99 14.44,15.06 24.54,18.03 1.77,-7.6 1.6,-4.04 4.78,-9.1l34.01 -65.49c1.3,-2.58 2.06,-4.52 3.14,-6.79l15.61 -31.01c2.67,-4.86 3.44,-6.19 6.11,-10.56l13.88 -25.94c0.34,-0.67 0.8,-1.5 1.14,-2.17l56.49 -99.81c0.38,-0.6 0.91,-1.42 1.27,-2.03 8.19,-14.2 3.66,-14.23 18.6,-37.93 9.49,-15.08 -2.77,5.44 2.39,-4.19 2.15,-4.03 3.47,-7.73 5.22,-11.36 0.33,-0.69 0.78,-1.54 1.13,-2.23 0.34,-0.68 0.81,-1.5 1.16,-2.17l24.54 -45.23c1.89,-3.94 2.75,-6.22 5.38,-11.28l12.3 -24.26c1.14,-2.22 1.7,-3.32 3.26,-6.64 0.44,-0.92 1.58,-3.71 2.03,-4.64 9.6,-20.03 9.45,-11.2 18.91,-37.47 5.06,-14.05 13.04,-12.76 18.94,-27.63l12.78 -27.33c0.38,-0.61 0.96,-1.38 1.35,-1.98 0.37,-0.61 0.95,-1.38 1.32,-1.99 0.37,-0.6 0.92,-1.4 1.28,-2.02l4.2 -8.9c1.87,-5.18 2.53,-9.32 3.79,-12.82l12.82 -23.91c0.37,-0.64 0.81,-1.51 1.18,-2.15 0.38,-0.64 0.84,-1.5 1.22,-2.12l21.1 -35.36c1.3,-2.61 2.04,-4.53 3.14,-6.79l37.62 -65.8c0.25,-0.11 1.13,-0.63 1.35,-0.75 0.48,-0.25 2.01,-1.34 2.81,-2.11 -3.32,-13.35 -8.88,-18.71 -15.31,-30.78 -1.49,-2.8 -2.2,-4.19 -3.46,-6.51l-151.71 -353.54c-4.7,-12.46 -6.64,-22.75 -11.34,-35.2l-33.85 -108.72c0.38,19.33 8.48,28.11 -1.59,41.76l-7.54 12.58c-11.28,27.53 -10.63,16.47 -19.88,33.34 -6.68,12.16 -6.54,18.64 -14,29.22 -0.41,0.57 -1,1.35 -1.39,1.94l-4.86 8.43c-0.34,0.69 -0.74,1.56 -1.08,2.25l-4.16 9.13c-0.34,0.68 -0.81,1.51 -1.16,2.18l-12.24 24.32c-0.35,0.65 -0.85,1.47 -1.21,2.11l-85.68 160.23c-0.32,0.72 -0.69,1.61 -1.04,2.31 -0.34,0.66 -0.83,1.49 -1.2,2.14l-61.61 114.53c-0.34,0.68 -0.78,1.52 -1.12,2.21l-4.21 9.08c-0.34,0.68 -0.81,1.5 -1.16,2.17l-8.82 17.78c-0.33,0.67 -0.81,1.51 -1.15,2.16l-47.15 85.82c-1.6,4.27 -1.03,3.3 -2.77,7.22l-3.35 6.62c-3.64,6.79 -3.89,7.1 -7.47,12.47l-12.93 20.27c-1.66,3.86 -0.17,2.1 -2.75,7.23l-12.12 14.51c-8.67,10.55 -6.97,25.18 -18.26,38.27 -8.2,9.52 -8.03,23.21 -15.07,34.77l-19.31 33.84c-5,9.84 -8.52,16.86 -13.25,26.63l-51.58 94.72c-4.41,8.99 -3.6,3.78 -4.55,15.39 -13.84,0.06 -15.43,-6.7 -23.32,-9.51z"/>
   <path class="fil1" d="M1226.97 4241.04c3.32,4.19 2.91,3.62 6.7,7.2l116.6 89.5c27.86,17.27 112.51,81 133.24,86.28l6.29 -1.63c-16.33,-9.5 -8.27,0.91 -13.4,-12.29 0.86,-0.85 4.46,-1.41 10.31,-12.78l7.43 -15.85c0.32,-0.7 0.74,-1.55 1.05,-2.26l8.84 -21.15c7.4,-13.87 12.82,-27.98 23.46,-39.8 0.46,-0.52 1.15,-1.22 1.62,-1.73 11.87,-12.79 6.36,-4.68 12.04,-20.9l9.76 -20.38c0.39,-0.59 1.05,-1.31 1.45,-1.89 10.89,-15.39 4.62,-9.77 13.82,-29.25 1.95,-4.11 1.71,-3.99 4.31,-9.02l26.47 -50.18c5.46,-5.1 5.5,-3.07 8.02,-5.25l14.44 -25.14c3.05,-7.7 4.22,-22.93 12.59,-37.41 6.81,-11.79 8.06,-7.74 19.76,-33.37l9.72 -13.79c6,-5.96 2.64,-0.81 6,-7.02 2.45,-4.57 0.95,-4.1 3.62,-9.69l2.46 -4.28c0.36,-0.63 0.98,-1.36 1.33,-1.99l61.94 -120.84c5.97,-11.7 1.36,-16.16 12.19,-27.87 18.81,-20.36 10.49,-14.92 17.44,-23.28 11.65,11.74 18.06,27.62 32.78,32.77 -4.9,-7.81 -7.78,-12.06 -13.23,-19.13 -5.56,-7.22 -9.97,-10.38 -15.25,-18 -2.56,-3.7 -3.7,-6.47 -6.26,-10.36l-85.51 -123.9c-0.37,-0.63 -0.83,-1.49 -1.2,-2.12l-31.07 -48.71c-0.37,-0.63 -0.85,-1.47 -1.22,-2.1l-31.19 -51.91c-0.37,-0.63 -0.86,-1.47 -1.22,-2.1l-29.88 -50.34c-0.8,0.77 -2.33,1.86 -2.81,2.11 -0.22,0.12 -1.1,0.64 -1.35,0.75l-37.62 65.8c-1.1,2.26 -1.84,4.18 -3.14,6.79l-21.1 35.36c-0.38,0.62 -0.84,1.48 -1.22,2.12 -0.37,0.64 -0.81,1.51 -1.18,2.15l-12.82 23.91c-1.26,3.5 -1.92,7.64 -3.79,12.82l-4.2 8.9c-0.36,0.62 -0.91,1.42 -1.28,2.02 -0.37,0.61 -0.95,1.38 -1.32,1.99 -0.39,0.6 -0.97,1.37 -1.35,1.98l-12.78 27.33c-5.9,14.87 -13.88,13.58 -18.94,27.63 -9.46,26.27 -9.31,17.44 -18.91,37.47 -0.45,0.93 -1.59,3.72 -2.03,4.64 -1.56,3.32 -2.12,4.42 -3.26,6.64l-12.3 24.26c-2.63,5.06 -3.49,7.34 -5.38,11.28l-24.54 45.23c-0.35,0.67 -0.82,1.49 -1.16,2.17 -0.35,0.69 -0.8,1.54 -1.13,2.23 -1.75,3.63 -3.07,7.33 -5.22,11.36 -5.16,9.63 7.1,-10.89 -2.39,4.19 -14.94,23.7 -10.41,23.73 -18.6,37.93 -0.36,0.61 -0.89,1.43 -1.27,2.03l-56.49 99.81c-0.34,0.67 -0.8,1.5 -1.14,2.17l-13.88 25.94c-2.67,4.37 -3.44,5.7 -6.11,10.56l-15.61 31.01c-1.08,2.27 -1.84,4.21 -3.14,6.79l-34.01 65.49c-3.18,5.06 -3.01,1.5 -4.78,9.1z"/>
   <path class="fil1" d="M1544.17 2602.21c-2.25,23.17 16.13,152.87 21.49,180.45l31.46 174.63c6.6,25.74 18.73,93.62 25.98,111.29 9.52,-13.39 -3.64,-22.08 13.23,-51.2l10 -16.65c0.48,-0.88 1.87,-3.44 2.34,-4.35l18.71 -37.77c0.34,-0.67 0.82,-1.5 1.17,-2.16l41.02 -75.37c1.59,-3.3 1.59,-3.59 3.18,-6.84 1.89,-3.87 1.87,-3.88 3.36,-6.47 0.35,-0.62 0.87,-1.43 1.24,-2.04l140.68 -261.56c5.27,-9.61 5.33,-17.1 11.74,-24.55 0.44,-0.5 1.19,-1.14 1.64,-1.63l54.07 -102.47c0.37,-0.62 0.88,-1.44 1.25,-2.05l11.12 -18.88c3.48,-6.74 3.31,-7.8 6.02,-14.07l38.14 -74.72c2.62,-4.73 2.35,-4.44 5.04,-8.08 5.76,-7.82 -2.3,3 4.51,-5.36l59.25 -110.57c8.1,-15.59 18.8,-31.07 23.07,-47.21 0.64,0.48 1.53,0.55 1.82,1.55 1.55,5.3 9.79,6.75 16.02,8.19 -3.27,-14.05 -35.43,-36.22 -47.51,-46.57 -27.21,-23.28 -80.49,-58.18 -107.73,-78.4 -10.54,-7.83 -49.13,-32.82 -60.44,-35.6 4.81,13.66 14.64,12.13 25.86,19.95 -0.4,21.5 -3.06,20.06 -12.44,33.84l-10.39 23.06c-3.07,8.8 1.29,-1.71 -1.72,4.85 -5.93,12.94 -5.29,0.93 -21.01,32.09l-22.3 44.15c-0.35,0.66 -0.86,1.46 -1.19,2.14 -0.46,0.92 -1.76,3.62 -2.16,4.59 -2.12,5.07 -2.1,6.92 -4.31,12.35 -0.4,0.97 -1.61,3.6 -2.05,4.52l-53.3 96.28c-6.11,12.09 -2.78,15 -13.03,26.71 -12.58,14.37 -10.06,10.2 -18.57,31.57l-4.01 9.11c-3.75,6.47 -0.31,-0.18 -4.12,5.83l-20.22 39.69c-0.34,0.67 -0.82,1.49 -1.17,2.17l-29.55 53.5c-4.02,7.84 -6.06,12.33 -9.98,19.95 -8.33,16.21 -21.75,48.73 -32.22,60.64 -17.79,20.24 -0.64,9.09 -18.93,34.34l-2.78 3.92c-0.82,1.24 -5.66,9.77 -6.06,10.64 -7.63,16.24 -0.46,10.74 -11.95,27.81 -0.4,0.59 -0.99,1.36 -1.39,1.95l-34.16 58.82c-6.73,-12.7 -5.29,-41.55 -7.5,-51.73 -1.48,-6.85 -3.46,-7.72 -5.03,-15.09 -3.17,-14.81 -4.4,-51.19 -5.59,-67.42l-0.6 28.23z"/>
   <path class="fil1" d="M1544.17 2602.21l0.6 -28.23c1.19,16.23 2.42,52.61 5.59,67.42 1.57,7.37 3.55,8.24 5.03,15.09 2.21,10.18 0.77,39.03 7.5,51.73l34.16 -58.82c0.4,-0.59 0.99,-1.36 1.39,-1.95 11.49,-17.07 4.32,-11.57 11.95,-27.81 0.4,-0.87 5.24,-9.4 6.06,-10.64l2.78 -3.92c18.29,-25.25 1.14,-14.1 18.93,-34.34 10.47,-11.91 23.89,-44.43 32.22,-60.64 3.92,-7.62 5.96,-12.11 9.98,-19.95l29.55 -53.5c0.35,-0.68 0.83,-1.5 1.17,-2.17l20.22 -39.69c3.81,-6.01 0.37,0.64 4.12,-5.83l4.01 -9.11c8.51,-21.37 5.99,-17.2 18.57,-31.57 10.25,-11.71 6.92,-14.62 13.03,-26.71l53.3 -96.28c0.44,-0.92 1.65,-3.55 2.05,-4.52 2.21,-5.43 2.19,-7.28 4.31,-12.35 0.4,-0.97 1.7,-3.67 2.16,-4.59 0.33,-0.68 0.84,-1.48 1.19,-2.14l22.3 -44.15c15.72,-31.16 15.08,-19.15 21.01,-32.09 3.01,-6.56 -1.35,3.95 1.72,-4.85l10.39 -23.06c9.38,-13.78 12.04,-12.34 12.44,-33.84 -11.22,-7.82 -21.05,-6.29 -25.86,-19.95 -25.06,-20.23 -111.42,-62.93 -152.94,-80.07 -4.31,-1.77 -9.29,-3.61 -14.12,-5.82 -5.15,-2.37 -6.99,-3.37 -13.97,-5.98 -11.47,-4.28 -19.05,-7.14 -29.09,-10.8 -10.25,-3.72 -17.09,-6.54 -26.87,-9.68 -10.71,-3.44 -6.69,-2.6 -14.46,-5.49l-60.82 -18.94c-5.88,-2.24 -38.29,-13.02 -42.46,-10.83 -6.56,3.45 -7.21,24 -7.74,31.41 -1.74,24.17 -0.15,54.77 -0.15,79.63 0,100.71 -6.13,216.94 5.76,306.73 5.74,43.5 -0.66,85.25 9.59,146.63 2.73,16.39 4.46,55.57 4.53,71.93 0.09,19.68 2.52,18.58 5.4,34.49 2.68,14.82 -1.53,26.43 5.47,35.25z"/>
   <path class="fil1" d="M1483.51 4424.02c6.2,8.2 37.43,25.77 49.85,33.1l67.65 38.7c0.89,0.48 3.41,1.88 4.3,2.36 3.07,1.66 5.89,3.05 8.72,4.57l34.25 18.93c9.53,4.62 8.42,5.02 17.17,9.42 22.81,11.51 74.24,41.05 91.25,42.36 -5.97,-8.83 -18.06,-13.61 -26.51,-19.95 3.37,-11.99 4.39,-6.25 7.28,-12.07 3.33,-6.7 2.37,-7.82 4.89,-15.28 1.39,-4.13 1.39,-3.95 2.89,-6.92 6.25,-12.26 10.9,-12.56 17.95,-25.25 0.37,-0.66 0.81,-1.52 1.16,-2.19l23.37 -43.09c0.35,-0.67 0.83,-1.49 1.17,-2.17l38.72 -74.29c1.7,-3.28 2.76,-5.67 4.35,-9 1.55,-3.23 2.11,-4.36 3.29,-6.63 0.33,-0.66 0.81,-1.49 1.16,-2.16 0.34,-0.66 0.82,-1.49 1.17,-2.15 0.34,-0.67 0.82,-1.5 1.16,-2.18l19.91 -39.93c0.33,-0.69 0.76,-1.57 1.09,-2.26 14.83,-30.72 6.79,-0.95 23.11,-40.07l10.66 -19.12c0.91,-1.45 3.63,-5.52 3.93,-6.07 5.99,-10.81 3.39,-12.79 13.46,-29.76l18.56 -31.19c0.42,-0.56 1.05,-1.31 1.46,-1.88 0.42,-0.57 1,-1.35 1.41,-1.93l30.47 -62.5 26.17 22.29c9.63,9.26 15.62,20.19 29.62,23.99l-192.3 -220.29c-7.57,-9.49 -21.84,-24.55 -27.05,-33.66 -14.72,-5.15 -21.13,-21.03 -32.78,-32.77 -6.95,8.36 1.37,2.92 -17.44,23.28 -10.83,11.71 -6.22,16.17 -12.19,27.87l-61.94 120.84c-0.35,0.63 -0.97,1.36 -1.33,1.99l-2.46 4.28c-2.67,5.59 -1.17,5.12 -3.62,9.69 -3.36,6.21 0,1.06 -6,7.02l-9.72 13.79c-11.7,25.63 -12.95,21.58 -19.76,33.37 -8.37,14.48 -9.54,29.71 -12.59,37.41l-14.44 25.14c-2.52,2.18 -2.56,0.15 -8.02,5.25l-26.47 50.18c-2.6,5.03 -2.36,4.91 -4.31,9.02 -9.2,19.48 -2.93,13.86 -13.82,29.25 -0.4,0.58 -1.06,1.3 -1.45,1.89l-9.76 20.38c-5.68,16.22 -0.17,8.11 -12.04,20.9 -0.47,0.51 -1.16,1.21 -1.62,1.73 -10.64,11.82 -16.06,25.93 -23.46,39.8l-8.84 21.15c-0.31,0.71 -0.73,1.56 -1.05,2.26l-7.43 15.85c-5.85,11.37 -9.45,11.93 -10.31,12.78 5.13,13.2 -2.93,2.79 13.4,12.29l-6.29 1.63z"/>
  </g>
 </g>
</svg>
